<svg version="1" xmlns="http://www.w3.org/2000/svg" width="933.333" height="933.333" viewBox="0 0 700.000000 700.000000"><path d="M287.7 108.2c-6.1 1.6-10.1 6.5-13.2 15.9-7.7 24-28.2 51.7-73.9 100.1-25.2 26.7-27.8 29.6-32.8 36.4-11 15.1-19.8 39.6-19.8 55.3v5.8l-18.2.5c-25.1.7-40.9 4.6-56.5 14-7.6 4.5-19.1 15.4-23.3 22.1-3.2 5.1-4.1 5.8-10.5 8.1-18.2 6.8-36.5 21-38 29.4-1.2 7.2.2 12 5 16.8 8 7.9 15.7 7.5 27.8-1.7 8.9-6.7 14.5-9.6 25.6-13 8.8-2.6 12.1-5.3 16.2-12.9 6.5-12.2 18.7-20.8 35.1-24.7 11.2-2.7 36.5-2.4 52.8.5 11.9 2.2 31.6 6.8 33.2 7.8.4.3-1.8 4.4-4.9 9.1-19.2 29.8-24.2 62.4-13.2 85.9 1.6 3.2 3.7 5.6 6.8 7.6 4.1 2.6 5.3 2.9 10.7 2.6 13.4-.8 20.2-12 15.5-25.3-2.5-6.9-2.9-17.4-1-25 1.6-7 7.9-20.3 13.6-28.8 5.8-8.7 20.4-23.6 29.3-29.9 3.6-2.5 26.5-15.7 51-29.3 24.5-13.6 51-28.6 59-33.3 50.3-29.7 87.9-57.8 109.2-81.5l7.8-8.7 1.1 2.7c2.4 6.2 4.9 18 5.9 27.6 3.5 34.3-10.5 70.3-39.2 101.3-4.2 4.5-8.4 9.7-9.4 11.6-2.5 4.7-2.2 12.8.5 17.2 4.4 7.1 14.8 10.6 22.7 7.5 5.4-2 26.5-26.2 35.9-41.1 1.7-2.7 3.3-4.8 3.6-4.8 1.2 0 1.7 13 .8 20.7-2 17.6-10.3 34.5-25.2 51-10.1 11.4-11.9 17.2-7.6 26.1 3.8 7.7 12.4 11.5 21 9.2 7.7-2.1 23.8-20.6 34.1-39.3 18.9-34.4 19.3-73.2 1-108.2-4.2-8-4.7-9.4-4-13 6.1-33.3-.3-71.9-16.7-101.5-9.7-17.5-12.4-20.1-21.6-20.8-8.5-.6-13.6 2.6-18.5 11.6-14 25.2-40.3 50-82.8 77.9-25.4 16.7-48.6 30.3-102.1 59.8-18.7 10.3-38.4 21.6-43.9 25.2l-9.8 6.6-11.7-3.6c-6.4-2-15.6-4.6-20.6-5.8-4.9-1.2-9.3-2.7-9.7-3.3-1.4-2.1-.8-12.3 1.2-20 1.1-4.3 4.1-11.9 6.7-16.9 4.2-7.9 7.3-11.6 23.8-29.1 39.8-42.2 59.3-65.2 74.1-87.5l4.9-7.4 1.8 7.4c1.4 5.9 1.7 10.2 1.4 20.9-.6 16.2-2.5 24.5-9.7 40.6-5.7 12.9-6.3 17.6-2.7 23.9 5.3 9.4 16.9 12.2 25.8 6.2 6.5-4.4 16.7-27.7 21.1-48 2.7-13 3-36.2.4-47.6-3.9-17.4-9.4-30.5-19.2-45.2-6.3-9.6-11.5-14.4-16.8-15.8-5.1-1.2-4.8-1.2-9.9.1z"/><path d="M93.9 397.4C84 400 78.7 407 78.7 417.5c-.1 13.2 10 21.8 23.5 20.2 7.4-.9 12.4-4.6 15.5-11.4 2.1-4.6 2.5-6.5 2-11.1-1.3-12.8-13.2-21-25.8-17.8zM599.6 428.6c-24 3.1-52.2 11.3-82.3 24.1-8.7 3.7-40.5 19-70.8 34.1-79.5 39.6-98.7 48.1-131.5 57.5-42.2 12.3-84.4 9.6-128.8-8.2-27.7-11.1-57.8-30.1-80.1-50.6-4.6-4.2-10-8.4-12-9.2C80 470.4 66 483.1 70 498c1.5 5.5 10.1 14.3 28.1 28.6 54.9 43.8 118.7 65.6 179 61.3 23.6-1.7 42.4-5.8 69.4-15.5 30.9-11 45.7-17.7 112-50.9 90.6-45.5 119.8-55.9 160.1-57.2 20.2-.7 31.5.8 48.8 6.4 13.3 4.3 18.7 4.2 24.3-.3 9.5-7.7 9.8-20.7.7-28.2-3.2-2.7-16.1-7.4-29.3-10.7-17.1-4.3-43-5.5-63.5-2.9z"/></svg>