<?xml version="1.0" encoding="UTF-8"?>
<svg width="797px" height="102px" viewBox="0 0 797 102" version="1.1" xmlns="http://www.w3.org/2000/svg" xmlns:xlink="http://www.w3.org/1999/xlink">
    <!-- Generator: Sketch 43.2 (39069) - http://www.bohemiancoding.com/sketch -->
    <title>Group</title>
    <desc>Created with Sketch.</desc>
    <defs></defs>
    <g id="Page-1" stroke="none" stroke-width="1" fill="none" fill-rule="evenodd">
        <g id="Group" transform="translate(-2.000000, -2.000000)" fill="#FFFFFF">
            <path d="M260.648968,24.660767 C260.648968,22.7728519 259.980341,21.1406165 258.643068,19.7640118 C257.305795,18.3874071 255.732556,17.6597841 253.923304,17.5811209 L231.504425,17.5811209 L231.504425,88.259587 C231.583088,90.3048283 232.350042,92.0353912 233.80531,93.4513274 C235.260578,94.8672637 237.010806,95.5752212 239.056047,95.5752212 L240.589971,95.5752212 L240.589971,96.7551622 L214.749263,96.7551622 L214.749263,95.5752212 L216.283186,95.5752212 C218.328427,95.5752212 220.078655,94.8672637 221.533923,93.4513274 C222.989191,92.0353912 223.756145,90.3441593 223.834808,88.3775811 L223.834808,17.5811209 L201.415929,17.5811209 C199.528014,17.6597841 197.93511,18.3874071 196.637168,19.7640118 C195.339227,21.1406165 194.690265,22.7728519 194.690265,24.660767 L194.690265,26.6666667 L193.510324,26.7846608 L193.510324,11.9174041 C194.690271,12.3893829 196.735482,12.8613546 199.646018,13.3333333 C202.556553,13.8053121 205.23106,14.0412979 207.669617,14.0412979 L247.551622,14.0412979 C251.406116,14.0412979 254.61159,13.7463156 257.168142,13.1563422 C259.724693,12.5663687 261.278267,12.1533935 261.828909,11.9174041 L261.828909,26.7846608 L260.648968,26.6666667 L260.648968,24.660767 Z M390.678466,15.339233 L389.734513,15.339233 C386.823978,15.339233 384.267464,16.4011693 382.064897,18.5250737 C380.806287,19.6263575 379.901674,21.0029416 379.351032,22.6548673 L359.764012,85.0737463 C358.190749,90.0295233 357.325468,94.3952614 357.168142,98.1710914 L356.106195,98.1710914 L332.035398,30.6784661 L314.100295,85.0737463 C312.605696,89.9508602 311.779745,94.3165982 311.622419,98.1710914 L310.560472,98.1710914 L283.775811,22.5368732 C282.831854,20.1769794 281.376608,18.3874201 279.410029,17.1681416 C277.443451,15.9488631 275.437572,15.339233 273.39233,15.339233 L272.448378,15.339233 L272.448378,14.159292 L298.643068,14.159292 L298.643068,15.339233 L297.581121,15.339233 C295.929195,15.339233 294.69027,15.8702012 293.864307,16.9321534 C293.038344,17.9941056 292.625369,18.9970454 292.625369,19.9410029 C292.625369,20.8849605 292.743362,21.7502419 292.979351,22.5368732 L310.914454,80 L332.861357,12.2713864 L333.923304,12.3893805 L357.168142,77.640118 L372.979351,22.4188791 C373.21534,21.5535847 373.333333,20.6686378 373.333333,19.7640118 C373.333333,18.8593858 372.940024,17.895777 372.153392,16.8731563 C371.366761,15.8505357 370.147501,15.339233 368.495575,15.339233 L367.433628,15.339233 L367.433628,14.159292 L390.678466,14.159292 L390.678466,15.339233 Z M407.433628,95.5752212 C409.47887,95.5752212 411.229098,94.8475982 412.684366,93.3923304 C414.139634,91.9370625 414.906588,90.1868342 414.985251,88.1415929 L414.985251,22.6548673 C414.906588,20.609626 414.139634,18.8790631 412.684366,17.4631268 C411.229098,16.0471906 409.47887,15.339233 407.433628,15.339233 L405.899705,15.339233 L405.899705,14.159292 L431.740413,14.159292 L431.740413,15.339233 L430.20649,15.339233 C428.161248,15.339233 426.41102,16.0471906 424.955752,17.4631268 C423.500484,18.8790631 422.73353,20.609626 422.654867,22.6548673 L422.654867,88.1415929 C422.654867,90.1868342 423.402156,91.9370625 424.896755,93.3923304 C426.391355,94.8475982 428.161248,95.5752212 430.20649,95.5752212 L431.740413,95.5752212 L431.740413,96.7551622 L405.899705,96.7551622 L405.899705,95.5752212 L407.433628,95.5752212 Z M510.324484,36.9321534 C510.324484,40.393331 509.616526,43.6184708 508.20059,46.6076696 C505.604707,52.1927516 501.042314,56.086518 494.513274,58.2890855 C492.232044,59.0757168 490.265495,59.4690265 488.613569,59.4690265 C483.736455,59.4690265 479.528041,58.5644142 475.988201,56.7551622 L475.988201,55.5752212 C481.730609,56.8338313 487.04029,56.2045357 491.917404,53.6873156 C496.243876,51.4847481 499.193699,47.8662985 500.766962,42.8318584 C501.23894,41.2585959 501.474926,39.7640189 501.474926,38.3480826 L501.474926,35.7522124 C501.3176,30.2457935 499.862354,25.86039 497.109145,22.5958702 C494.355935,19.3313504 490.5015,17.699115 485.545723,17.699115 L471.976401,17.699115 L471.976401,88.1415929 C472.055064,90.1868342 472.822018,91.9370625 474.277286,93.3923304 C475.732554,94.8475982 477.482782,95.5752212 479.528024,95.5752212 L481.061947,95.5752212 L481.061947,96.7551622 L455.221239,96.7551622 L455.221239,95.5752212 L456.755162,95.5752212 C458.800404,95.5752212 460.550632,94.8475982 462.0059,93.3923304 C463.461168,91.9370625 464.228122,90.1868342 464.306785,88.1415929 L464.306785,22.1828909 C464.070795,20.2163127 463.244845,18.5840773 461.828909,17.2861357 C460.412972,15.9881941 458.72174,15.339233 456.755162,15.339233 L455.339233,15.339233 L455.221239,14.159292 L486.017699,14.159292 C493.569359,14.159292 499.508336,16.1848372 503.834808,20.2359882 C508.16128,24.2871392 510.324484,29.852472 510.324484,36.9321534 Z M532.861357,91.9174041 C532.625368,90.8161204 532.507375,88.6922478 532.507375,85.5457227 C532.507375,82.3991976 533.097339,79.0560649 534.277286,75.5162242 L535.339233,75.5162242 C535.26057,76.3815186 535.221239,77.2468 535.221239,78.1120944 C535.221239,82.9105451 536.676485,86.9026389 539.587021,90.0884956 C542.497556,93.2743522 546.351992,94.8672566 551.150442,94.8672566 C556.106219,94.8672566 560.176975,93.3726796 563.362832,90.3834808 C566.548688,87.394282 568.141593,83.638174 568.141593,79.1150442 C568.141593,74.5919145 566.607685,70.9144684 563.539823,68.0825959 L540.884956,47.079646 C536.637147,43.1464897 534.513274,38.3874419 534.513274,32.8023599 C534.513274,27.2172779 536.381496,22.4385646 540.117994,18.4660767 C543.854493,14.4935888 548.908523,12.5073746 555.280236,12.5073746 C558.269435,12.5073746 561.651899,12.9006844 565.427729,13.6873156 L570.029499,13.6873156 L570.029499,28.20059 L568.967552,28.20059 C568.967552,24.503423 567.689295,21.5536 565.132743,19.3510324 C562.576192,17.1484649 559.292055,16.0471976 555.280236,16.0471976 C551.268417,16.0471976 547.905618,17.3844507 545.19174,20.0589971 C542.477863,22.7335434 541.120944,26.0766761 541.120944,30.0884956 C541.120944,34.100315 542.694183,37.5614407 545.840708,40.4719764 L569.085546,61.9469027 C573.018702,65.5654065 574.985251,70.5211091 574.985251,76.8141593 C574.985251,83.1072094 572.979371,88.2792324 568.967552,92.3303835 C564.955732,96.3815345 559.60672,98.4070796 552.920354,98.4070796 C549.459176,98.4070796 545.78173,97.8761115 541.887906,96.8141593 C537.994081,95.7522071 534.985261,94.1199717 532.861357,91.9174041 Z M677.876106,15.339233 L675.988201,15.339233 C674.336275,15.339233 672.900694,15.8702012 671.681416,16.9321534 C670.462137,17.9941056 669.813176,19.3116932 669.734513,20.8849558 L669.734513,67.6106195 C669.734513,76.8142053 666.824021,84.2477593 661.00295,89.9115044 C655.181878,95.5752496 647.433677,98.4070796 637.758112,98.4070796 C628.082547,98.4070796 620.236018,95.594915 614.218289,89.9705015 C608.20056,84.3460879 605.19174,76.9321994 605.19174,67.7286136 L605.19174,21.2389381 C605.19174,18.8790442 604.169135,17.1484814 602.123894,16.0471976 C601.179936,15.5752189 600.118,15.339233 598.938053,15.339233 L597.050147,15.339233 L597.050147,14.159292 L621.00295,14.159292 L621.00295,15.339233 L619.115044,15.339233 C617.384455,15.339233 615.929209,15.8702012 614.749263,16.9321534 C613.569316,17.9941056 612.94002,19.3510242 612.861357,21.0029499 L612.861357,66.0766962 C612.861357,74.650977 615.162219,81.5732283 619.764012,86.8436578 C624.365805,92.1140873 630.521102,94.7492625 638.230088,94.7492625 C645.939075,94.7492625 652.1927,92.2517457 656.99115,87.2566372 C661.789601,82.2615286 664.188791,75.7129215 664.188791,67.6106195 L664.188791,21.0029499 C664.110127,19.3510242 663.480832,17.9941056 662.300885,16.9321534 C661.120938,15.8702012 659.665692,15.339233 657.935103,15.339233 L656.047198,15.339233 L656.047198,14.159292 L677.876106,14.159292 L677.876106,15.339233 Z M797.050147,95.5752212 L798.938053,95.5752212 L798.938053,96.7551622 L773.333333,96.7551622 L773.333333,95.6932153 L775.103245,95.6932153 C776.440518,95.6932153 777.581116,95.1622472 778.525074,94.100295 C779.469031,93.0383428 779.862341,91.8780791 779.705015,90.619469 L774.39528,31.2684366 L749.616519,86.3716814 C747.413952,91.1701322 746.076699,95.1818914 745.60472,98.4070796 L744.424779,98.4070796 L714.218289,32.920354 L709.144543,90.619469 C708.987217,91.8780791 709.380526,93.0383428 710.324484,94.100295 C711.268441,95.1622472 712.369709,95.6932153 713.628319,95.6932153 L715.516224,95.6932153 L715.516224,96.7551622 L692.625369,96.7551622 L692.625369,95.5752212 L694.513274,95.5752212 C696.715842,95.5752212 698.623394,94.9065947 700.235988,93.5693215 C701.848582,92.2320484 702.812191,90.4228236 703.126844,88.1415929 L711.976401,12.5073746 L713.156342,12.5073746 L746.076696,83.6578171 L778.289086,12.5073746 L779.351032,12.5073746 L788.436578,88.1415929 C788.829894,91.288118 790.403133,93.4906525 793.156342,94.7492625 C794.336289,95.2999044 795.634211,95.5752212 797.050147,95.5752212 Z" id="TWIPSUM-Copy"></path>
            <g id="Page-1-Copy">
                <path d="M24.8726595,68.0317676 C24.8726595,72.0653506 18.8552088,72.0653506 18.8552088,68.0317676 C18.8552088,63.9921942 24.8726595,63.9921942 24.8726595,68.0317676" id="Fill-1"></path>
                <path d="M149.496289,74.1939641 C131.998385,67.1751305 115.098649,75.833356 97.2052787,85.0047651 C88.2546188,89.5914681 79.0018941,94.3339233 69.4312063,97.1654187 C42.6805776,105.106785 21.3313461,83.1097799 21.0213321,82.7823009 C20.097252,81.7998639 18.5531439,81.7599274 17.5754075,82.6884502 C16.5976712,83.6249603 16.5579258,85.1764919 17.4820059,86.1529385 C18.2808881,86.9936011 34.4970036,103.834808 57.3664959,103.834808 C61.6371371,103.834808 66.1303524,103.249739 70.8123583,101.861947 C80.818258,98.8886771 90.2816333,94.0463808 99.4250582,89.3578398 C116.308896,80.7155888 132.254743,72.5405945 147.685887,78.7347402 C148.93588,79.233946 150.356777,78.6249149 150.853594,77.3689131 C151.358361,76.1208986 150.752243,74.69317 149.496289,74.1939641 Z" id="Fill-2"></path>
                <path d="M46.0489986,56.6358974 C40.3038038,63.2893125 37.8435647,71.5901066 40.6853594,77.5486272 C41.1046732,78.4292262 41.9731098,78.9444066 42.8892408,78.9444066 C43.2469492,78.9444066 43.6026704,78.8665305 43.9444807,78.702791 C45.1567148,78.1177218 45.675392,76.6600408 45.0931222,75.4339914 C42.2294675,69.4135693 48.1137712,58.866349 57.2035398,53.726526 C59.5405682,52.4086226 62.0326036,51.0368051 64.679646,49.5851146 C79.4748642,41.4740186 97.5391399,31.5677785 105.402764,20.209848 C108.383667,26.2861811 112.264804,39.9125028 97.7557522,54.4913093 C96.8018631,55.4517813 96.8018631,57.0033129 97.7557522,57.9538008 C98.7116286,58.9062855 100.255737,58.9062855 101.203664,57.9538008 C105.370967,53.7584752 108.204813,49.6010892 110.045024,45.6074427 C111.901133,50.0603585 113.437292,58.5867937 104.385282,67.6823236 C103.431393,68.6328114 103.431393,70.1923304 104.385282,71.1448151 C104.860239,71.620059 105.488216,71.8616746 106.110231,71.8616746 C106.730259,71.8616746 107.358236,71.620059 107.833194,71.1448151 C123.536594,55.3719083 112.700016,40.1461312 112.179351,39.4452462 C115.595467,25.0461538 107.429778,14.0716133 107.312529,13.9238484 C106.791865,13.2449285 105.961186,12.8934876 105.122559,12.979351 C104.277969,13.0732017 103.540692,13.5963694 103.175035,14.3671432 C97.7637013,25.8568641 78.1235212,36.6297254 62.3426176,45.2799637 C59.6796771,46.7376447 57.1737308,48.111459 54.8128551,49.445337 C53.0819438,50.427774 51.4603322,51.5579759 49.9619314,52.7980032 C48.2449309,52.1510324 44.2087875,50.7392784 39.2942711,49.7488541 C37.8435647,46.2464261 39.699674,39.718811 43.4317653,35.832993 L44.0617295,35.1780349 C51.3192361,27.6360336 60.8064586,17.791695 64.7730477,9.69457681 C66.8835274,13.7281597 68.9025928,21.0065804 63.8648657,30.3417291 C63.2190033,31.5358294 63.6621643,33.0174722 64.8505512,33.6644429 C66.0369508,34.3134105 67.5134917,33.8681189 68.1573669,32.6820059 C77.7061947,14.9601997 65.905791,2.82350806 65.7885422,2.70569548 C65.144667,2.06671205 64.206676,1.83308373 63.3442012,2.09866122 C62.4817264,2.372226 61.8378513,3.09707284 61.6669461,3.99364647 C60.3235522,11.240118 48.4158361,23.6024506 40.5442633,31.7854323 L39.9162863,32.4403903 C35.9735445,36.5358747 33.2788076,43.4149308 34.0637789,48.9461312 C25.4390312,48.0255956 15.820649,49.2576356 11.3572427,57.6662582 C9.41568079,58.2193783 5.59614967,59.6151577 2.69274957,62.5245292 C1.73886043,63.4770138 1.73886043,65.0365328 2.69274957,65.9890175 C3.16770688,66.4642614 3.7956839,66.705877 4.41769912,66.705877 C5.03772706,66.705877 5.66769135,66.4642614 6.14066139,65.9890175 C9.02021425,63.0876333 13.4677224,62.1750851 13.5074678,62.1670978 C14.2904518,62.0113456 14.9442633,61.4881779 15.2701754,60.7633311 C20.2920043,49.4832766 38.813352,54.2656683 46.0489986,56.6358974 Z" id="Fill-3"></path>
            </g>
        </g>
    </g>
</svg>