<?xml version="1.0" encoding="UTF-8"?>
<svg width="35px" height="28px" viewBox="0 0 35 28" version="1.1" xmlns="http://www.w3.org/2000/svg" xmlns:xlink="http://www.w3.org/1999/xlink">
    <!-- Generator: Sketch 43.2 (39069) - http://www.bohemiancoding.com/sketch -->
    <title>“” copy</title>
    <desc>Created with Sketch.</desc>
    <defs></defs>
    <g id="Page-1" stroke="none" stroke-width="1" fill="none" fill-rule="evenodd">
        <g id="twipsum_desktop" transform="translate(-715.000000, -213.000000)" fill="#000000">
            <path d="M723.42,240.12 C722.579996,240.12 721.506673,239.81667 720.2,239.21 C718.893327,238.60333 717.796671,237.203344 716.91,235.01 C716.023329,232.816656 715.58,230.460013 715.58,227.94 C715.58,225.419987 716.373325,222.900013 717.96,220.38 C720.853348,215.806644 724.866641,213.426668 730,213.24 L730.28,214.5 C728.226656,215.24667 726.616673,216.226661 725.45,217.44 C724.283328,218.653339 723.606668,219.959993 723.42,221.36 C723.233332,224.253348 724.166656,226.866655 726.22,229.2 C728.833346,232.093348 729.673338,234.636656 728.74,236.83 C727.806662,239.023344 726.033346,240.12 723.42,240.12 Z M749.88,214.5 C747.17332,215.433338 745.330005,216.716658 744.35,218.35 C743.369995,219.983341 742.88,221.219996 742.88,222.06 C742.88,224.673346 743.85999,227.053323 745.82,229.2 C748.433346,232.093348 749.273338,234.659989 748.34,236.9 C747.406662,239.046677 745.680013,240.12 743.16,240.12 C740.173318,240.12 738.096672,238.720014 736.93,235.92 C735.763328,233.119986 735.18,230.460013 735.18,227.94 C735.18,225.419987 735.973325,222.900013 737.56,220.38 C740.453348,215.806644 744.466641,213.426668 749.6,213.24 L749.88,214.5 Z" id="“”-copy" transform="translate(732.730000, 226.680000) rotate(-180.000000) translate(-732.730000, -226.680000) "></path>
        </g>
    </g>
</svg>