<?xml version="1.0" encoding="UTF-8"?>
<svg width="35px" height="28px" viewBox="0 0 35 28" version="1.1" xmlns="http://www.w3.org/2000/svg" xmlns:xlink="http://www.w3.org/1999/xlink">
    <!-- Generator: Sketch 43.2 (39069) - http://www.bohemiancoding.com/sketch -->
    <title>“”</title>
    <desc>Created with Sketch.</desc>
    <defs></defs>
    <g id="Page-1" stroke="none" stroke-width="1" fill="none" fill-rule="evenodd">
        <g id="twipsum_desktop" transform="translate(-625.000000, -213.000000)" fill="#000000">
            <path d="M633.42,240.12 C632.579996,240.12 631.506673,239.81667 630.2,239.21 C628.893327,238.60333 627.796671,237.203344 626.91,235.01 C626.023329,232.816656 625.58,230.460013 625.58,227.94 C625.58,225.419987 626.373325,222.900013 627.96,220.38 C630.853348,215.806644 634.866641,213.426668 640,213.24 L640.28,214.5 C638.226656,215.24667 636.616673,216.226661 635.45,217.44 C634.283328,218.653339 633.606668,219.959993 633.42,221.36 C633.233332,224.253348 634.166656,226.866655 636.22,229.2 C638.833346,232.093348 639.673338,234.636656 638.74,236.83 C637.806662,239.023344 636.033346,240.12 633.42,240.12 Z M659.88,214.5 C657.17332,215.433338 655.330005,216.716658 654.35,218.35 C653.369995,219.983341 652.88,221.219996 652.88,222.06 C652.88,224.673346 653.85999,227.053323 655.82,229.2 C658.433346,232.093348 659.273338,234.659989 658.34,236.9 C657.406662,239.046677 655.680013,240.12 653.16,240.12 C650.173318,240.12 648.096672,238.720014 646.93,235.92 C645.763328,233.119986 645.18,230.460013 645.18,227.94 C645.18,225.419987 645.973325,222.900013 647.56,220.38 C650.453348,215.806644 654.466641,213.426668 659.6,213.24 L659.88,214.5 Z" id="“”"></path>
        </g>
    </g>
</svg>