<?xml version="1.0" encoding="UTF-8"?>
<svg width="334px" height="14px" viewBox="0 0 334 14" version="1.1" xmlns="http://www.w3.org/2000/svg" xmlns:xlink="http://www.w3.org/1999/xlink">
    <!-- Generator: Sketch 43.2 (39069) - http://www.bohemiancoding.com/sketch -->
    <title>Twitter to lorem ips Copy</title>
    <desc>Created with Sketch.</desc>
    <defs></defs>
    <g id="Page-1" stroke="none" stroke-width="1" fill="none" fill-rule="evenodd">
        <path d="M10.602,2.002 C10.602,1.71399856 10.500001,1.46500105 10.296,1.255 C10.091999,1.04499895 9.85200138,0.93400006 9.576,0.922 L6.156,0.922 L6.156,11.704 C6.16800006,12.0160016 6.28499889,12.2799989 6.507,12.496 C6.72900111,12.7120011 6.99599844,12.82 7.308,12.82 L7.542,12.82 L7.542,13 L3.6,13 L3.6,12.82 L3.834,12.82 C4.14600156,12.82 4.41299889,12.7120011 4.635,12.496 C4.85700111,12.2799989 4.97399994,12.0220015 4.986,11.722 L4.986,0.922 L1.566,0.922 C1.27799856,0.93400006 1.03500099,1.04499895 0.837,1.255 C0.63899901,1.46500105 0.54,1.71399856 0.54,2.002 L0.54,2.308 L0.36,2.326 L0.36,0.058 C0.5400009,0.13000036 0.85199778,0.20199964 1.296,0.274 C1.74000222,0.34600036 2.14799814,0.382 2.52,0.382 L8.604,0.382 C9.19200294,0.382 9.68099805,0.33700045 10.071,0.247 C10.4610019,0.15699955 10.6979996,0.09400018 10.782,0.058 L10.782,2.326 L10.602,2.308 L10.602,2.002 Z M27.396,2.38 L27.27,2.38 C26.5499964,2.38 26.0580013,2.73399646 25.794,3.442 L23.184,11.218 C22.9199987,11.9740038 22.7820001,12.6399971 22.77,13.216 L22.59,13.216 L19.242,4.648 L16.902,11.218 C16.6619988,11.9620037 16.5300001,12.6279971 16.506,13.216 L16.344,13.216 L12.564,3.37 C12.2879986,2.7099967 11.8080034,2.38 11.124,2.38 L10.98,2.38 L10.98,2.2 L14.688,2.2 L14.688,2.38 L14.544,2.38 C14.3279989,2.38 14.1630006,2.44599934 14.049,2.578 C13.9349994,2.71000066 13.878,2.84199934 13.878,2.974 C13.878,3.10600066 13.8959998,3.2319994 13.932,3.352 L16.326,10.678 L19.368,1.912 L19.548,1.93 L22.77,10.138 L24.786,3.46 C24.8460003,3.29199916 24.876,3.14200066 24.876,3.01 C24.876,2.87799934 24.8280005,2.74000072 24.732,2.596 C24.6359995,2.45199928 24.4740011,2.38 24.246,2.38 L24.102,2.38 L24.102,2.2 L27.396,2.2 L27.396,2.38 Z M28.548,12.82 C28.8720016,12.82 29.1539988,12.724001 29.394,12.532 C29.6340012,12.339999 29.754,12.1120013 29.754,11.848 L29.754,3.352 C29.754,3.08799868 29.6340012,2.86000096 29.394,2.668 C29.1539988,2.47599904 28.8660017,2.38 28.53,2.38 L28.296,2.38 L28.296,2.2 L32.364,2.2 L32.364,2.38 L32.13,2.38 C31.8059984,2.38 31.5270012,2.4699991 31.293,2.65 C31.0589988,2.8300009 30.9300001,3.05199868 30.906,3.316 L30.906,11.866 C30.9180001,12.1300013 31.0439988,12.3549991 31.284,12.541 C31.5240012,12.7270009 31.8059984,12.82 32.13,12.82 L32.364,12.82 L32.382,13 L28.296,13 L28.296,12.82 L28.548,12.82 Z M39.15,2.722 L39.15,11.866 C39.1620001,12.2380019 39.3419983,12.5139991 39.69,12.694 C39.8460008,12.7780004 40.019999,12.82 40.212,12.82 L40.41,12.82 L40.41,13 L36.702,13 L36.702,12.82 L36.918,12.82 C37.2060014,12.82 37.451999,12.724001 37.656,12.532 C37.860001,12.339999 37.9679999,12.1120013 37.98,11.848 L37.98,2.722 L34.722,2.722 C34.4459986,2.722 34.2270008,2.8119991 34.065,2.992 C33.9029992,3.1720009 33.822,3.38799874 33.822,3.64 L33.822,3.928 L33.624,3.928 L33.624,1.894 C33.8640012,1.99000048 34.2029978,2.06199976 34.641,2.11 C35.0790022,2.15800024 35.4059989,2.182 35.622,2.182 L41.49,2.182 C42.3540043,2.182 43.0259976,2.08600096 43.506,1.894 L43.506,3.928 L43.308,3.928 L43.308,3.64 C43.308,3.38799874 43.2240008,3.1720009 43.056,2.992 C42.8879992,2.8119991 42.6720013,2.722 42.408,2.722 L39.15,2.722 Z M49.824,2.722 L49.824,11.866 C49.8360001,12.2380019 50.0159983,12.5139991 50.364,12.694 C50.5200008,12.7780004 50.693999,12.82 50.886,12.82 L51.084,12.82 L51.084,13 L47.376,13 L47.376,12.82 L47.592,12.82 C47.8800014,12.82 48.125999,12.724001 48.33,12.532 C48.534001,12.339999 48.6419999,12.1120013 48.654,11.848 L48.654,2.722 L45.396,2.722 C45.1199986,2.722 44.9010008,2.8119991 44.739,2.992 C44.5769992,3.1720009 44.496,3.38799874 44.496,3.64 L44.496,3.928 L44.298,3.928 L44.298,1.894 C44.5380012,1.99000048 44.8769978,2.06199976 45.315,2.11 C45.7530022,2.15800024 46.0799989,2.182 46.296,2.182 L52.164,2.182 C53.0280043,2.182 53.6999976,2.08600096 54.18,1.894 L54.18,3.928 L53.982,3.928 L53.982,3.64 C53.982,3.38799874 53.8980008,3.1720009 53.73,2.992 C53.5619992,2.8119991 53.3460013,2.722 53.082,2.722 L49.824,2.722 Z M55.674,12.82 C55.9620014,12.82 56.204999,12.7270009 56.403,12.541 C56.601001,12.3549991 56.7059999,12.1300013 56.718,11.866 L56.718,3.316 C56.718,3.05199868 56.616001,2.8300009 56.412,2.65 C56.207999,2.4699991 55.9620014,2.38 55.674,2.38 L55.422,2.38 L55.422,2.2 L60.678,2.2 C61.1700025,2.2 61.6019981,2.16400036 61.974,2.092 C62.3460019,2.01999964 62.5859995,1.96000024 62.694,1.912 L62.694,3.964 L62.496,3.946 L62.496,3.676 C62.496,3.42399874 62.4120008,3.2080009 62.244,3.028 C62.0759992,2.8479991 61.8600013,2.758 61.596,2.758 L57.852,2.758 L57.852,7.33 L60.93,7.33 C61.1700012,7.33 61.3529994,7.25800072 61.479,7.114 C61.6050006,6.96999928 61.668,6.79000108 61.668,6.574 L61.668,6.34 L61.866,6.34 L61.866,8.86 L61.668,8.86 L61.668,8.626 C61.668,8.28999832 61.5420013,8.0620006 61.29,7.942 C61.1939995,7.90599982 61.0920005,7.88200006 60.984,7.87 L57.852,7.87 L57.852,12.442 L60.678,12.442 C61.2300028,12.442 61.6949981,12.346001 62.073,12.154 C62.4510019,11.961999 62.738999,11.7340013 62.937,11.47 C63.135001,11.2059987 63.335999,10.8580022 63.54,10.426 L63.72,10.426 L62.73,13 L55.422,13 L55.422,12.82 L55.674,12.82 Z M68.436,2.758 L67.482,2.758 L67.482,11.848 C67.4940001,12.2200019 67.6619984,12.501999 67.986,12.694 C68.1420008,12.7780004 68.315999,12.82 68.508,12.82 L68.742,12.82 L68.76,13 L65.07,13 L65.07,12.82 L65.322,12.82 C65.5980014,12.82 65.834999,12.7270009 66.033,12.541 C66.231001,12.3549991 66.33,12.1300013 66.33,11.866 L66.33,3.316 C66.33,3.05199868 66.231001,2.8300009 66.033,2.65 C65.834999,2.4699991 65.5980014,2.38 65.322,2.38 L65.07,2.38 L65.07,2.2 L69.588,2.2 C70.7160056,2.2 71.6069967,2.45799742 72.261,2.974 C72.9150033,3.49000258 73.242,4.1679958 73.242,5.008 C73.242,5.8480042 72.9780026,6.54999718 72.45,7.114 C71.9219974,7.67800282 71.2500041,8.00199958 70.434,8.086 C70.8180019,8.25400084 71.2799973,8.72199616 71.82,9.49 C71.8079999,9.49 72.0149979,9.75399736 72.441,10.282 C72.8670021,10.8100026 73.2089987,11.2209985 73.467,11.515 C73.7250013,11.8090015 73.9379992,12.0339992 74.106,12.19 C74.5500022,12.6100021 75.0599971,12.82 75.636,12.82 L75.636,13 L75.078,13 C74.1299953,13 73.3860027,12.8140019 72.846,12.442 C72.437998,12.1659986 72.0660017,11.824002 71.73,11.416 C71.6579996,11.3199995 71.3550027,10.8970037 70.821,10.147 C70.2869973,9.39699625 70.0020002,8.99800024 69.966,8.95 C69.3179968,8.14599598 68.7120028,7.744 68.148,7.744 L68.148,7.564 C69.552007,7.564 70.3979986,7.49200072 70.686,7.348 C71.082002,7.14399898 71.3519993,6.92800114 71.496,6.7 C71.7960015,6.2199976 71.946,5.69200288 71.946,5.116 C71.946,4.38399634 71.7300022,3.82000198 71.298,3.424 C70.8659978,3.02799802 70.2840037,2.81200018 69.552,2.776 C69.2279984,2.76399994 68.8560021,2.758 68.436,2.758 Z M85.662,2.722 L85.662,11.866 C85.6740001,12.2380019 85.8539983,12.5139991 86.202,12.694 C86.3580008,12.7780004 86.531999,12.82 86.724,12.82 L86.922,12.82 L86.922,13 L83.214,13 L83.214,12.82 L83.43,12.82 C83.7180014,12.82 83.963999,12.724001 84.168,12.532 C84.372001,12.339999 84.4799999,12.1120013 84.492,11.848 L84.492,2.722 L81.234,2.722 C80.9579986,2.722 80.7390008,2.8119991 80.577,2.992 C80.4149992,3.1720009 80.334,3.38799874 80.334,3.64 L80.334,3.928 L80.136,3.928 L80.136,1.894 C80.3760012,1.99000048 80.7149978,2.06199976 81.153,2.11 C81.5910022,2.15800024 81.9179989,2.182 82.134,2.182 L88.002,2.182 C88.8660043,2.182 89.5379976,2.08600096 90.018,1.894 L90.018,3.928 L89.82,3.928 L89.82,3.64 C89.82,3.38799874 89.7360008,3.1720009 89.568,2.992 C89.3999992,2.8119991 89.1840013,2.722 88.92,2.722 L85.662,2.722 Z M96.705,1.948 C97.8150056,1.948 98.8319954,2.18499763 99.756,2.659 C100.680005,3.13300237 101.414997,3.80199568 101.961,4.666 C102.507003,5.53000432 102.78,6.50799454 102.78,7.6 C102.78,8.69200546 102.507003,9.66999568 101.961,10.534 C101.414997,11.3980043 100.680005,12.0669976 99.756,12.541 C98.8319954,13.0150024 97.8840049,13.252 96.912,13.252 C95.9399951,13.252 95.0820037,13.1140014 94.338,12.838 C93.5939963,12.5619986 92.9490027,12.1780025 92.403,11.686 C91.8569973,11.1939975 91.4250016,10.5940035 91.107,9.886 C90.7889984,9.17799646 90.63,8.34700477 90.63,7.393 C90.63,6.43899523 90.9029973,5.53000432 91.449,4.666 C91.9950027,3.80199568 92.7299954,3.13300237 93.654,2.659 C94.5780046,2.18499763 95.5949945,1.948 96.705,1.948 Z M96.696,12.712 C98.0400067,12.712 99.1679954,12.2350048 100.08,11.281 C100.992005,10.3269952 101.448,9.1000075 101.448,7.6 C101.448,6.0999925 100.992005,4.87300477 100.08,3.919 C99.1679954,2.96499523 98.0400067,2.488 96.696,2.488 C95.3519933,2.488 94.2270045,2.96499523 93.321,3.919 C92.4149955,4.87300477 91.962,6.0999925 91.962,7.6 C91.962,9.1000075 92.4149955,10.3269952 93.321,11.281 C94.2270045,12.2350048 95.3519933,12.712 96.696,12.712 Z M109.404,12.82 C109.692001,12.82 109.934999,12.7270009 110.133,12.541 C110.331001,12.3549991 110.436,12.1300013 110.448,11.866 L110.448,3.352 C110.436,3.08799868 110.325001,2.86000096 110.115,2.668 C109.904999,2.47599904 109.656001,2.38 109.368,2.38 L109.152,2.38 L109.152,2.2 L112.878,2.2 L112.878,2.38 L112.662,2.38 C112.373999,2.38 112.125001,2.47599904 111.915,2.668 C111.704999,2.86000096 111.6,3.08799868 111.6,3.352 L111.6,12.442 L114.408,12.442 C114.960003,12.442 115.427998,12.346001 115.812,12.154 C116.196002,11.961999 116.486999,11.7340013 116.685,11.47 C116.883001,11.2059987 117.077999,10.8580022 117.27,10.426 L117.45,10.426 L116.46,13 L109.152,13 L109.152,12.82 L109.404,12.82 Z M124.695,1.948 C125.805006,1.948 126.821995,2.18499763 127.746,2.659 C128.670005,3.13300237 129.404997,3.80199568 129.951,4.666 C130.497003,5.53000432 130.77,6.50799454 130.77,7.6 C130.77,8.69200546 130.497003,9.66999568 129.951,10.534 C129.404997,11.3980043 128.670005,12.0669976 127.746,12.541 C126.821995,13.0150024 125.874005,13.252 124.902,13.252 C123.929995,13.252 123.072004,13.1140014 122.328,12.838 C121.583996,12.5619986 120.939003,12.1780025 120.393,11.686 C119.846997,11.1939975 119.415002,10.5940035 119.097,9.886 C118.778998,9.17799646 118.62,8.34700477 118.62,7.393 C118.62,6.43899523 118.892997,5.53000432 119.439,4.666 C119.985003,3.80199568 120.719995,3.13300237 121.644,2.659 C122.568005,2.18499763 123.584994,1.948 124.695,1.948 Z M124.686,12.712 C126.030007,12.712 127.157995,12.2350048 128.07,11.281 C128.982005,10.3269952 129.438,9.1000075 129.438,7.6 C129.438,6.0999925 128.982005,4.87300477 128.07,3.919 C127.157995,2.96499523 126.030007,2.488 124.686,2.488 C123.341993,2.488 122.217005,2.96499523 121.311,3.919 C120.404995,4.87300477 119.952,6.0999925 119.952,7.6 C119.952,9.1000075 120.404995,10.3269952 121.311,11.281 C122.217005,12.2350048 123.341993,12.712 124.686,12.712 Z M135.738,2.758 L134.784,2.758 L134.784,11.848 C134.796,12.2200019 134.963998,12.501999 135.288,12.694 C135.444001,12.7780004 135.617999,12.82 135.81,12.82 L136.044,12.82 L136.062,13 L132.372,13 L132.372,12.82 L132.624,12.82 C132.900001,12.82 133.136999,12.7270009 133.335,12.541 C133.533001,12.3549991 133.632,12.1300013 133.632,11.866 L133.632,3.316 C133.632,3.05199868 133.533001,2.8300009 133.335,2.65 C133.136999,2.4699991 132.900001,2.38 132.624,2.38 L132.372,2.38 L132.372,2.2 L136.89,2.2 C138.018006,2.2 138.908997,2.45799742 139.563,2.974 C140.217003,3.49000258 140.544,4.1679958 140.544,5.008 C140.544,5.8480042 140.280003,6.54999718 139.752,7.114 C139.223997,7.67800282 138.552004,8.00199958 137.736,8.086 C138.120002,8.25400084 138.581997,8.72199616 139.122,9.49 C139.11,9.49 139.316998,9.75399736 139.743,10.282 C140.169002,10.8100026 140.510999,11.2209985 140.769,11.515 C141.027001,11.8090015 141.239999,12.0339992 141.408,12.19 C141.852002,12.6100021 142.361997,12.82 142.938,12.82 L142.938,13 L142.38,13 C141.431995,13 140.688003,12.8140019 140.148,12.442 C139.739998,12.1659986 139.368002,11.824002 139.032,11.416 C138.96,11.3199995 138.657003,10.8970037 138.123,10.147 C137.588997,9.39699625 137.304,8.99800024 137.268,8.95 C136.619997,8.14599598 136.014003,7.744 135.45,7.744 L135.45,7.564 C136.854007,7.564 137.699999,7.49200072 137.988,7.348 C138.384002,7.14399898 138.653999,6.92800114 138.798,6.7 C139.098002,6.2199976 139.248,5.69200288 139.248,5.116 C139.248,4.38399634 139.032002,3.82000198 138.6,3.424 C138.167998,3.02799802 137.586004,2.81200018 136.854,2.776 C136.529998,2.76399994 136.158002,2.758 135.738,2.758 Z M143.91,12.82 C144.198001,12.82 144.440999,12.7270009 144.639,12.541 C144.837001,12.3549991 144.942,12.1300013 144.954,11.866 L144.954,3.316 C144.954,3.05199868 144.852001,2.8300009 144.648,2.65 C144.443999,2.4699991 144.198001,2.38 143.91,2.38 L143.658,2.38 L143.658,2.2 L148.914,2.2 C149.406002,2.2 149.837998,2.16400036 150.21,2.092 C150.582002,2.01999964 150.821999,1.96000024 150.93,1.912 L150.93,3.964 L150.732,3.946 L150.732,3.676 C150.732,3.42399874 150.648001,3.2080009 150.48,3.028 C150.311999,2.8479991 150.096001,2.758 149.832,2.758 L146.088,2.758 L146.088,7.33 L149.166,7.33 C149.406001,7.33 149.588999,7.25800072 149.715,7.114 C149.841001,6.96999928 149.904,6.79000108 149.904,6.574 L149.904,6.34 L150.102,6.34 L150.102,8.86 L149.904,8.86 L149.904,8.626 C149.904,8.28999832 149.778001,8.0620006 149.526,7.942 C149.43,7.90599982 149.328001,7.88200006 149.22,7.87 L146.088,7.87 L146.088,12.442 L148.914,12.442 C149.466003,12.442 149.930998,12.346001 150.309,12.154 C150.687002,11.961999 150.974999,11.7340013 151.173,11.47 C151.371001,11.2059987 151.571999,10.8580022 151.776,10.426 L151.956,10.426 L150.966,13 L143.658,13 L143.658,12.82 L143.91,12.82 Z M167.904,12.82 L168.174,12.82 L168.174,13 L164.43,13 L164.43,12.838 L164.7,12.838 C164.880001,12.838 165.038999,12.7690007 165.177,12.631 C165.315001,12.4929993 165.372,12.328001 165.348,12.136 L164.412,4.72 L161.01,11.416 C160.673998,12.1480037 160.464,12.7599975 160.38,13.252 L160.2,13.252 L155.862,4.882 L155.052,12.136 C155.028,12.3160009 155.084999,12.4779993 155.223,12.622 C155.361001,12.7660007 155.525999,12.838 155.718,12.838 L155.97,12.838 L155.97,13 L152.64,13 L152.64,12.82 L152.91,12.82 C153.342002,12.82 153.677999,12.6640016 153.918,12.352 C154.038001,12.1959992 154.11,12.0100011 154.134,11.794 L155.538,1.948 L155.718,1.948 L160.47,11.092 L165.06,1.948 L165.222,1.948 L166.68,11.83 C166.728,12.1300015 166.865999,12.3699991 167.094,12.55 C167.322001,12.7300009 167.591998,12.82 167.904,12.82 Z M174.042,12.82 C174.366002,12.82 174.647999,12.724001 174.888,12.532 C175.128001,12.339999 175.248,12.1120013 175.248,11.848 L175.248,3.352 C175.248,3.08799868 175.128001,2.86000096 174.888,2.668 C174.647999,2.47599904 174.360002,2.38 174.024,2.38 L173.79,2.38 L173.79,2.2 L177.858,2.2 L177.858,2.38 L177.624,2.38 C177.299998,2.38 177.021001,2.4699991 176.787,2.65 C176.552999,2.8300009 176.424,3.05199868 176.4,3.316 L176.4,11.866 C176.412,12.1300013 176.537999,12.3549991 176.778,12.541 C177.018001,12.7270009 177.299998,12.82 177.624,12.82 L177.858,12.82 L177.876,13 L173.79,13 L173.79,12.82 L174.042,12.82 Z M182.97,7.888 C183.246001,7.96000036 183.497999,7.996 183.726,7.996 C183.954001,7.996 184.139999,7.99000006 184.284,7.978 C184.428001,7.96599994 184.631999,7.92700033 184.896,7.861 C185.160001,7.79499967 185.399999,7.69000072 185.616,7.546 C186.120003,7.23399844 186.491999,6.74200336 186.732,6.07 C186.816,5.8299988 186.858,5.50600204 186.858,5.098 C186.858,4.36599634 186.606003,3.7900021 186.102,3.37 C185.597997,2.9499979 184.902004,2.74 184.014,2.74 L182.268,2.74 L182.268,11.848 C182.28,12.2320019 182.453998,12.5139991 182.79,12.694 C182.946001,12.7780004 183.119999,12.82 183.312,12.82 L183.564,12.82 L183.564,13 L179.838,13 L179.838,12.82 L180.09,12.82 C180.378001,12.82 180.620999,12.7270009 180.819,12.541 C181.017001,12.3549991 181.122,12.1300013 181.134,11.866 L181.134,3.334 C181.122,3.05799862 181.017001,2.8300009 180.819,2.65 C180.620999,2.4699991 180.378001,2.38 180.09,2.38 L179.838,2.38 L179.838,2.2 L184.05,2.2 C185.310006,2.2 186.308996,2.47599724 187.047,3.028 C187.785004,3.58000276 188.154,4.32399532 188.154,5.26 C188.154,5.93200336 187.998002,6.51999748 187.686,7.024 C187.073997,8.00800492 186.126006,8.5 184.842,8.5 C184.205997,8.5 183.582003,8.35600144 182.97,8.068 L182.97,7.888 Z M189.846,12.406 C189.81,12.2619993 189.792,11.9680022 189.792,11.524 C189.792,11.0799978 189.869999,10.6300023 190.026,10.174 L190.242,10.174 C190.23,10.2820005 190.224,10.3899995 190.224,10.498 C190.224,11.1460032 190.436998,11.6769979 190.863,12.091 C191.289002,12.5050021 191.879996,12.712 192.636,12.712 C193.428004,12.712 194.045998,12.5290018 194.49,12.163 C194.934002,11.7969982 195.156,11.3230029 195.156,10.741 C195.156,10.1589971 194.940002,9.67600192 194.508,9.292 L190.908,6.52 C190.331997,6.02799754 190.044,5.36800414 190.044,4.54 C190.044,4.07199766 190.172999,3.64000198 190.431,3.244 C190.689001,2.84799802 191.048998,2.53300117 191.511,2.299 C191.973002,2.06499883 192.515997,1.948 193.14,1.948 C193.764003,1.948 194.315998,2.00199946 194.796,2.11 L195.39,2.11 L195.426,4.072 L195.228,4.072 C195.228,3.56799748 195.054002,3.17800138 194.706,2.902 C194.357998,2.62599862 193.860003,2.488 193.212,2.488 C192.563997,2.488 192.030002,2.65299835 191.61,2.983 C191.189998,3.31300165 190.98,3.73899739 190.98,4.261 C190.98,4.78300261 191.213998,5.23599808 191.682,5.62 L195.318,8.428 C195.870003,8.88400228 196.146,9.51999592 196.146,10.336 C196.146,11.1520041 195.837003,11.8419972 195.219,12.406 C194.600997,12.9700028 193.848004,13.252 192.96,13.252 C192.371997,13.252 191.784003,13.1800007 191.196,13.036 C190.607997,12.8919993 190.158002,12.6820014 189.846,12.406 Z M209.088,2.38 L208.818,2.38 C208.493998,2.38 208.248001,2.50599874 208.08,2.758 C208.008,2.86600054 207.966,2.99199928 207.954,3.136 L207.954,9.202 C207.954,10.4500062 207.555004,11.4369964 206.757,12.163 C205.958996,12.8890036 204.864007,13.252 203.472,13.252 C202.079993,13.252 200.982004,12.8920036 200.178,12.172 C199.373996,11.4519964 198.972,10.4680062 198.972,9.22 L198.972,3.154 C198.972,2.93799892 198.888001,2.75500075 198.72,2.605 C198.551999,2.45499925 198.348001,2.38 198.108,2.38 L197.838,2.38 L197.838,2.2 L201.258,2.2 L201.258,2.38 L200.988,2.38 C200.747999,2.38 200.544001,2.45499925 200.376,2.605 C200.207999,2.75500075 200.124,2.93799892 200.124,3.154 L200.124,9.004 C200.124,10.1680058 200.420997,11.0859966 201.015,11.758 C201.609003,12.4300034 202.448995,12.766 203.535,12.766 C204.621005,12.766 205.490997,12.4480032 206.145,11.812 C206.799003,11.1759968 207.126,10.3060055 207.126,9.202 L207.126,3.154 C207.114,2.92599886 207.027001,2.74000072 206.865,2.596 C206.702999,2.45199928 206.502001,2.38 206.262,2.38 L205.992,2.38 L205.992,2.2 L209.088,2.2 L209.088,2.38 Z M225.036,12.82 L225.306,12.82 L225.306,13 L221.562,13 L221.562,12.838 L221.832,12.838 C222.012001,12.838 222.170999,12.7690007 222.309,12.631 C222.447001,12.4929993 222.504,12.328001 222.48,12.136 L221.544,4.72 L218.142,11.416 C217.805998,12.1480037 217.596,12.7599975 217.512,13.252 L217.332,13.252 L212.994,4.882 L212.184,12.136 C212.16,12.3160009 212.216999,12.4779993 212.355,12.622 C212.493001,12.7660007 212.657999,12.838 212.85,12.838 L213.102,12.838 L213.102,13 L209.772,13 L209.772,12.82 L210.042,12.82 C210.474002,12.82 210.809999,12.6640016 211.05,12.352 C211.170001,12.1959992 211.242,12.0100011 211.266,11.794 L212.67,1.948 L212.85,1.948 L217.602,11.092 L222.192,1.948 L222.354,1.948 L223.812,11.83 C223.86,12.1300015 223.997999,12.3699991 224.226,12.55 C224.454001,12.7300009 224.723998,12.82 225.036,12.82 Z M232.443,11.713 C231.368995,10.6989949 230.832,9.32500867 230.832,7.591 C230.832,5.85699133 231.368995,4.48300507 232.443,3.469 C233.517005,2.45499493 234.902992,1.948 236.601,1.948 C238.299008,1.948 239.741994,2.3079964 240.93,3.028 L241.326,5.584 L241.164,5.584 C240.911999,4.52799472 240.423004,3.74800252 239.697,3.244 C238.970996,2.73999748 237.945007,2.488 236.619,2.488 C235.292993,2.488 234.213004,2.94699541 233.379,3.865 C232.544996,4.78300459 232.128,6.02799214 232.128,7.6 C232.128,9.17200786 232.547996,10.4169954 233.388,11.335 C234.228004,12.2530046 235.388993,12.712 236.871,12.712 C238.353007,12.712 239.627995,12.1900052 240.696,11.146 L240.714,8.752 C240.726,8.53599892 240.657001,8.36500063 240.507,8.239 C240.356999,8.11299937 240.150001,8.05 239.886,8.05 L239.634,8.05 L239.634,7.87 L242.928,7.87 L242.928,8.05 L242.676,8.05 C242.135997,8.05 241.866,8.2899976 241.866,8.77 L241.866,10.93 C241.361997,11.5540031 240.669004,12.0969977 239.787,12.559 C238.904996,13.0210023 237.888006,13.252 236.736,13.252 C234.947991,13.2399999 233.517005,12.7270051 232.443,11.713 Z M244.26,12.82 C244.548001,12.82 244.790999,12.7270009 244.989,12.541 C245.187001,12.3549991 245.292,12.1300013 245.304,11.866 L245.304,3.316 C245.304,3.05199868 245.202001,2.8300009 244.998,2.65 C244.793999,2.4699991 244.548001,2.38 244.26,2.38 L244.008,2.38 L244.008,2.2 L249.264,2.2 C249.756002,2.2 250.187998,2.16400036 250.56,2.092 C250.932002,2.01999964 251.171999,1.96000024 251.28,1.912 L251.28,3.964 L251.082,3.946 L251.082,3.676 C251.082,3.42399874 250.998001,3.2080009 250.83,3.028 C250.661999,2.8479991 250.446001,2.758 250.182,2.758 L246.438,2.758 L246.438,7.33 L249.516,7.33 C249.756001,7.33 249.938999,7.25800072 250.065,7.114 C250.191001,6.96999928 250.254,6.79000108 250.254,6.574 L250.254,6.34 L250.452,6.34 L250.452,8.86 L250.254,8.86 L250.254,8.626 C250.254,8.28999832 250.128001,8.0620006 249.876,7.942 C249.78,7.90599982 249.678001,7.88200006 249.57,7.87 L246.438,7.87 L246.438,12.442 L249.264,12.442 C249.816003,12.442 250.280998,12.346001 250.659,12.154 C251.037002,11.961999 251.324999,11.7340013 251.523,11.47 C251.721001,11.2059987 251.921999,10.8580022 252.126,10.426 L252.306,10.426 L251.316,13 L244.008,13 L244.008,12.82 L244.26,12.82 Z M265.932,2.38 C265.667999,2.38 265.440001,2.46699913 265.248,2.641 C265.055999,2.81500087 264.954,3.02799874 264.942,3.28 L264.942,10.948 C264.942,11.6440035 264.984,12.3039969 265.068,12.928 L265.104,13.252 L264.942,13.252 L255.582,4.378 L255.582,11.884 C255.582,12.1480013 255.677999,12.3699991 255.87,12.55 C256.062001,12.7300009 256.295999,12.82 256.572,12.82 L256.878,12.82 L256.878,13 L253.476,13 L253.476,12.82 L253.782,12.82 C254.058001,12.82 254.291999,12.7300009 254.484,12.55 C254.676001,12.3699991 254.772,12.1480013 254.772,11.884 L254.772,4.18 C254.772,3.44799634 254.73,2.79400288 254.646,2.218 L254.61,1.93 L254.808,1.948 L264.15,10.75 L264.15,3.28 C264.126,3.02799874 264.018001,2.81500087 263.826,2.641 C263.633999,2.46699913 263.406001,2.38 263.142,2.38 L262.836,2.38 L262.836,2.2 L266.238,2.2 L266.238,2.38 L265.932,2.38 Z M268.11,12.82 C268.398001,12.82 268.640999,12.7270009 268.839,12.541 C269.037001,12.3549991 269.142,12.1300013 269.154,11.866 L269.154,3.316 C269.154,3.05199868 269.052001,2.8300009 268.848,2.65 C268.643999,2.4699991 268.398001,2.38 268.11,2.38 L267.858,2.38 L267.858,2.2 L273.114,2.2 C273.606002,2.2 274.037998,2.16400036 274.41,2.092 C274.782002,2.01999964 275.021999,1.96000024 275.13,1.912 L275.13,3.964 L274.932,3.946 L274.932,3.676 C274.932,3.42399874 274.848001,3.2080009 274.68,3.028 C274.511999,2.8479991 274.296001,2.758 274.032,2.758 L270.288,2.758 L270.288,7.33 L273.366,7.33 C273.606001,7.33 273.788999,7.25800072 273.915,7.114 C274.041001,6.96999928 274.104,6.79000108 274.104,6.574 L274.104,6.34 L274.302,6.34 L274.302,8.86 L274.104,8.86 L274.104,8.626 C274.104,8.28999832 273.978001,8.0620006 273.726,7.942 C273.63,7.90599982 273.528001,7.88200006 273.42,7.87 L270.288,7.87 L270.288,12.442 L273.114,12.442 C273.666003,12.442 274.130998,12.346001 274.509,12.154 C274.887002,11.961999 275.174999,11.7340013 275.373,11.47 C275.571001,11.2059987 275.771999,10.8580022 275.976,10.426 L276.156,10.426 L275.166,13 L267.858,13 L267.858,12.82 L268.11,12.82 Z M280.872,2.758 L279.918,2.758 L279.918,11.848 C279.93,12.2200019 280.097998,12.501999 280.422,12.694 C280.578001,12.7780004 280.751999,12.82 280.944,12.82 L281.178,12.82 L281.196,13 L277.506,13 L277.506,12.82 L277.758,12.82 C278.034001,12.82 278.270999,12.7270009 278.469,12.541 C278.667001,12.3549991 278.766,12.1300013 278.766,11.866 L278.766,3.316 C278.766,3.05199868 278.667001,2.8300009 278.469,2.65 C278.270999,2.4699991 278.034001,2.38 277.758,2.38 L277.506,2.38 L277.506,2.2 L282.024,2.2 C283.152006,2.2 284.042997,2.45799742 284.697,2.974 C285.351003,3.49000258 285.678,4.1679958 285.678,5.008 C285.678,5.8480042 285.414003,6.54999718 284.886,7.114 C284.357997,7.67800282 283.686004,8.00199958 282.87,8.086 C283.254002,8.25400084 283.715997,8.72199616 284.256,9.49 C284.244,9.49 284.450998,9.75399736 284.877,10.282 C285.303002,10.8100026 285.644999,11.2209985 285.903,11.515 C286.161001,11.8090015 286.373999,12.0339992 286.542,12.19 C286.986002,12.6100021 287.495997,12.82 288.072,12.82 L288.072,13 L287.514,13 C286.565995,13 285.822003,12.8140019 285.282,12.442 C284.873998,12.1659986 284.502002,11.824002 284.166,11.416 C284.094,11.3199995 283.791003,10.8970037 283.257,10.147 C282.722997,9.39699625 282.438,8.99800024 282.402,8.95 C281.753997,8.14599598 281.148003,7.744 280.584,7.744 L280.584,7.564 C281.988007,7.564 282.833999,7.49200072 283.122,7.348 C283.518002,7.14399898 283.787999,6.92800114 283.932,6.7 C284.232002,6.2199976 284.382,5.69200288 284.382,5.116 C284.382,4.38399634 284.166002,3.82000198 283.734,3.424 C283.301998,3.02799802 282.720004,2.81200018 281.988,2.776 C281.663998,2.76399994 281.292002,2.758 280.872,2.758 Z M299.682,12.82 L299.826,12.82 L299.826,13 L296.136,13 L296.136,12.82 L296.28,12.82 C296.508001,12.82 296.681999,12.7420008 296.802,12.586 C296.922001,12.4299992 296.982,12.2830007 296.982,12.145 C296.982,12.0069993 296.958,11.8720007 296.91,11.74 L295.92,9.346 L291.366,9.346 L290.376,11.686 C290.316,11.8420008 290.286,11.9889993 290.286,12.127 C290.286,12.2650007 290.345999,12.4149992 290.466,12.577 C290.586001,12.7390008 290.765999,12.82 291.006,12.82 L291.15,12.82 L291.15,13 L287.712,13 L287.712,12.82 L287.856,12.82 C288.108001,12.82 288.362999,12.7330009 288.621,12.559 C288.879001,12.3849991 289.091999,12.1240017 289.26,11.776 C291.888013,6.15997192 293.255999,3.22000132 293.364,2.956 C293.568001,2.45199748 293.676,2.11600084 293.688,1.948 L293.85,1.948 L298.296,11.776 C298.644002,12.4720035 299.105997,12.82 299.682,12.82 Z M291.6,8.806 L295.704,8.806 L293.688,3.874 L291.6,8.806 Z M304.272,2.722 L304.272,11.866 C304.284,12.2380019 304.463998,12.5139991 304.812,12.694 C304.968001,12.7780004 305.141999,12.82 305.334,12.82 L305.532,12.82 L305.532,13 L301.824,13 L301.824,12.82 L302.04,12.82 C302.328001,12.82 302.573999,12.724001 302.778,12.532 C302.982001,12.339999 303.09,12.1120013 303.102,11.848 L303.102,2.722 L299.844,2.722 C299.567999,2.722 299.349001,2.8119991 299.187,2.992 C299.024999,3.1720009 298.944,3.38799874 298.944,3.64 L298.944,3.928 L298.746,3.928 L298.746,1.894 C298.986001,1.99000048 299.324998,2.06199976 299.763,2.11 C300.201002,2.15800024 300.527999,2.182 300.744,2.182 L306.612,2.182 C307.476004,2.182 308.147998,2.08600096 308.628,1.894 L308.628,3.928 L308.43,3.928 L308.43,3.64 C308.43,3.38799874 308.346001,3.1720009 308.178,2.992 C308.009999,2.8119991 307.794001,2.722 307.53,2.722 L304.272,2.722 Z M315.315,1.948 C316.425006,1.948 317.441995,2.18499763 318.366,2.659 C319.290005,3.13300237 320.024997,3.80199568 320.571,4.666 C321.117003,5.53000432 321.39,6.50799454 321.39,7.6 C321.39,8.69200546 321.117003,9.66999568 320.571,10.534 C320.024997,11.3980043 319.290005,12.0669976 318.366,12.541 C317.441995,13.0150024 316.494005,13.252 315.522,13.252 C314.549995,13.252 313.692004,13.1140014 312.948,12.838 C312.203996,12.5619986 311.559003,12.1780025 311.013,11.686 C310.466997,11.1939975 310.035002,10.5940035 309.717,9.886 C309.398998,9.17799646 309.24,8.34700477 309.24,7.393 C309.24,6.43899523 309.512997,5.53000432 310.059,4.666 C310.605003,3.80199568 311.339995,3.13300237 312.264,2.659 C313.188005,2.18499763 314.204994,1.948 315.315,1.948 Z M315.306,12.712 C316.650007,12.712 317.777995,12.2350048 318.69,11.281 C319.602005,10.3269952 320.058,9.1000075 320.058,7.6 C320.058,6.0999925 319.602005,4.87300477 318.69,3.919 C317.777995,2.96499523 316.650007,2.488 315.306,2.488 C313.961993,2.488 312.837005,2.96499523 311.931,3.919 C311.024995,4.87300477 310.572,6.0999925 310.572,7.6 C310.572,9.1000075 311.024995,10.3269952 311.931,11.281 C312.837005,12.2350048 313.961993,12.712 315.306,12.712 Z M326.358,2.758 L325.404,2.758 L325.404,11.848 C325.416,12.2200019 325.583998,12.501999 325.908,12.694 C326.064001,12.7780004 326.237999,12.82 326.43,12.82 L326.664,12.82 L326.682,13 L322.992,13 L322.992,12.82 L323.244,12.82 C323.520001,12.82 323.756999,12.7270009 323.955,12.541 C324.153001,12.3549991 324.252,12.1300013 324.252,11.866 L324.252,3.316 C324.252,3.05199868 324.153001,2.8300009 323.955,2.65 C323.756999,2.4699991 323.520001,2.38 323.244,2.38 L322.992,2.38 L322.992,2.2 L327.51,2.2 C328.638006,2.2 329.528997,2.45799742 330.183,2.974 C330.837003,3.49000258 331.164,4.1679958 331.164,5.008 C331.164,5.8480042 330.900003,6.54999718 330.372,7.114 C329.843997,7.67800282 329.172004,8.00199958 328.356,8.086 C328.740002,8.25400084 329.201997,8.72199616 329.742,9.49 C329.73,9.49 329.936998,9.75399736 330.363,10.282 C330.789002,10.8100026 331.130999,11.2209985 331.389,11.515 C331.647001,11.8090015 331.859999,12.0339992 332.028,12.19 C332.472002,12.6100021 332.981997,12.82 333.558,12.82 L333.558,13 L333,13 C332.051995,13 331.308003,12.8140019 330.768,12.442 C330.359998,12.1659986 329.988002,11.824002 329.652,11.416 C329.58,11.3199995 329.277003,10.8970037 328.743,10.147 C328.208997,9.39699625 327.924,8.99800024 327.888,8.95 C327.239997,8.14599598 326.634003,7.744 326.07,7.744 L326.07,7.564 C327.474007,7.564 328.319999,7.49200072 328.608,7.348 C329.004002,7.14399898 329.273999,6.92800114 329.418,6.7 C329.718001,6.2199976 329.868,5.69200288 329.868,5.116 C329.868,4.38399634 329.652002,3.82000198 329.22,3.424 C328.787998,3.02799802 328.206004,2.81200018 327.474,2.776 C327.149998,2.76399994 326.778002,2.758 326.358,2.758 Z" id="Twitter-to-lorem-ips-Copy" fill="#FFFFFF"></path>
    </g>
</svg>